<?xml version="1.0" encoding="UTF-8" standalone="no"?>
<!-- Generator: Adobe Illustrator 21.1.0, SVG Export Plug-In . SVG Version: 6.00 Build 0)  -->

<svg
   xmlns:dc="http://purl.org/dc/elements/1.1/"
   xmlns:cc="http://creativecommons.org/ns#"
   xmlns:rdf="http://www.w3.org/1999/02/22-rdf-syntax-ns#"
   xmlns:svg="http://www.w3.org/2000/svg"
   xmlns="http://www.w3.org/2000/svg"
   xmlns:sodipodi="http://sodipodi.sourceforge.net/DTD/sodipodi-0.dtd"
   xmlns:inkscape="http://www.inkscape.org/namespaces/inkscape"
   version="1.1"
   id="Layer_1"
   x="0px"
   y="0px"
   viewBox="0 0 396.9 212.6"
   style="enable-background:new 0 0 396.9 212.6;"
   xml:space="preserve"
   inkscape:version="0.91 r13725"
   sodipodi:docname="icon.svg"><metadata
     id="metadata3371"><rdf:RDF><cc:Work
         rdf:about=""><dc:format>image/svg+xml</dc:format><dc:type
           rdf:resource="http://purl.org/dc/dcmitype/StillImage" /><dc:title></dc:title></cc:Work></rdf:RDF></metadata><defs
     id="defs3369" /><sodipodi:namedview
     pagecolor="#ffffff"
     bordercolor="#666666"
     borderopacity="1"
     objecttolerance="10"
     gridtolerance="10"
     guidetolerance="10"
     inkscape:pageopacity="0"
     inkscape:pageshadow="2"
     inkscape:window-width="647"
     inkscape:window-height="480"
     id="namedview3367"
     showgrid="false"
     inkscape:zoom="1.2118922"
     inkscape:cx="178.10284"
     inkscape:cy="135.97653"
     inkscape:window-x="1255"
     inkscape:window-y="736"
     inkscape:window-maximized="0"
     inkscape:current-layer="Layer_1" /><style
     type="text/css"
     id="style3337">
	.st0{fill-rule:evenodd;clip-rule:evenodd;fill:#000000;}
	.st1{fill:#FFFFFF;}
</style><polygon
     style="clip-rule:evenodd;fill:#000000;fill-rule:evenodd"
     id="polygon3341"
     points="209.8,91.4 206,91.4 206,79.1 209.8,85 "
     class="st0" /><polygon
     style="clip-rule:evenodd;fill:#000000;fill-rule:evenodd"
     id="polygon3343"
     points="199.1,115.3 199.1,100.8 195.3,100.8 195.3,121.2 "
     class="st0" /><polygon
     style="clip-rule:evenodd;fill:#000000;fill-rule:evenodd"
     id="polygon3345"
     points="209.8,85.1 206,85.1 206,97.4 209.8,91.5 "
     class="st0" /><path
     style="clip-rule:evenodd;fill:#000000;fill-rule:evenodd"
     inkscape:connector-curvature="0"
     id="path3349"
     d="m 198.5,101.7 c 4.8,0 8.6,-3.9 8.6,-8.6 0,-0.4 0,-0.7 -0.1,-1.1 l -0.9,0 c 0,0.3 0.1,0.7 0.1,1.1 0,4.3 -3.5,7.7 -7.7,7.7 -0.1,0 -0.1,0 -0.2,0 l 0,0.9 c 0.1,0 0.1,0 0.2,0 z"
     class="st0" /><polygon
     style="clip-rule:evenodd;fill:#000000;fill-rule:evenodd"
     id="polygon3351"
     points="187.7,93.4 191.5,93.4 191.5,105.7 187.7,99.8 "
     class="st0" /><polygon
     style="clip-rule:evenodd;fill:#000000;fill-rule:evenodd"
     id="polygon3353"
     points="198.3,69.5 198.3,84 202.2,84 202.2,63.6 "
     class="st0" /><polygon
     style="clip-rule:evenodd;fill:#000000;fill-rule:evenodd"
     id="polygon3355"
     points="187.7,99.7 191.5,99.7 191.5,87.3 187.7,93.2 "
     class="st0" /><path
     style="clip-rule:evenodd;fill:#000000;fill-rule:evenodd"
     inkscape:connector-curvature="0"
     id="path3357"
     d="m 199,83 c -4.8,0 -8.6,3.9 -8.6,8.6 0,0.4 0,0.7 0.1,1.1 l 0.9,0 c 0,-0.3 -0.1,-0.7 -0.1,-1.1 0,-4.3 3.5,-7.7 7.7,-7.7 0.1,0 0.1,0 0.2,0 l 0,-0.9 c -0.1,0 -0.2,0 -0.2,0 z"
     class="st0" /></svg>